<mxfile host="app.diagrams.net" modified="2023-02-04T15:19:16.092Z" agent="5.0 (Macintosh; Intel Mac OS X 10_15_7) AppleWebKit/537.36 (KHTML, like Gecko) Chrome/109.0.0.0 Safari/537.36" etag="Z1mNrsEz4-6YLBuDl0Mh" version="20.8.13" type="github">
  <diagram name="Page-1" id="vN0Ib8UG-w7fX6WExJ9C">
    <mxGraphModel dx="954" dy="616" grid="1" gridSize="10" guides="1" tooltips="1" connect="1" arrows="1" fold="1" page="1" pageScale="1" pageWidth="850" pageHeight="1100" math="0" shadow="0">
      <root>
        <mxCell id="0" />
        <mxCell id="1" parent="0" />
        <mxCell id="YtpwA2V89_U66FAg79kb-3" value="EmployeeModel" style="swimlane;whiteSpace=wrap;html=1;" vertex="1" parent="1">
          <mxGeometry x="30" y="70" width="180" height="190" as="geometry" />
        </mxCell>
        <mxCell id="YtpwA2V89_U66FAg79kb-5" value="DepartmentModel" style="swimlane;whiteSpace=wrap;html=1;" vertex="1" parent="1">
          <mxGeometry x="360" y="70" width="180" height="190" as="geometry" />
        </mxCell>
      </root>
    </mxGraphModel>
  </diagram>
</mxfile>
